<svg width="190" height="27" viewBox="0 0 190 27" fill="none" xmlns="http://www.w3.org/2000/svg">
<path fill-rule="evenodd" clip-rule="evenodd" d="M0.225098 22.263C0.225098 23.1358 0.914458 23.8434 1.76483 23.8434H20.3586C21.6053 23.8434 22.3351 22.4021 21.6187 21.3549L20.9791 20.4198C16.3772 13.6927 10.6972 7.81533 4.18056 3.03771L2.65978 1.92277C1.64068 1.17563 0.225098 1.92334 0.225098 3.20877V22.263Z" fill="#FF7D35"/>
<path fill-rule="evenodd" clip-rule="evenodd" d="M0 1.61749C0 0.724173 0.706095 0 1.57711 0H21.2511C22.3303 0 23.0125 1.18905 22.4884 2.1566C19.4556 7.75549 15.2923 12.6259 10.277 16.4422L2.51682 22.3472C1.47613 23.1391 0 22.3772 0 21.0482V1.61749Z" fill="#FFA472"/>
<path d="M43.9041 11.8655L51.7791 22.121H47.1244L39.8056 12.7771V22.121H35.7657V2.17976H39.8056V10.9824L46.8316 2.17976H51.4864L43.9041 11.8655Z" fill="black"/>
<path d="M63.6919 9.558V7.87724H67.4684V22.121H63.6919V20.4402C62.56 21.8266 60.9694 22.5198 58.9201 22.5198C56.9684 22.5198 55.29 21.7981 53.8848 20.3547C52.4991 18.8924 51.8063 17.1072 51.8063 14.9991C51.8063 12.91 52.4991 11.1343 53.8848 9.67195C55.29 8.2096 56.9684 7.47842 58.9201 7.47842C60.9694 7.47842 62.56 8.17161 63.6919 9.558ZM56.7245 17.9048C57.4856 18.6455 58.4517 19.0158 59.6227 19.0158C60.7937 19.0158 61.7598 18.6455 62.5209 17.9048C63.3016 17.1451 63.6919 16.1766 63.6919 14.9991C63.6919 13.8216 63.3016 12.8625 62.5209 12.1219C61.7598 11.3622 60.7937 10.9824 59.6227 10.9824C58.4517 10.9824 57.4856 11.3622 56.7245 12.1219C55.9633 12.8625 55.5828 13.8216 55.5828 14.9991C55.5828 16.1766 55.9633 17.1451 56.7245 17.9048Z" fill="black"/>
<path d="M74.9509 22.121H71.1744V1.32513H74.9509V22.121Z" fill="black"/>
<path d="M92.9165 16.5089H81.8798C82.3678 18.2941 83.7437 19.1867 86.0076 19.1867C87.4519 19.1867 88.5448 18.712 89.2864 17.7624L92.331 19.4716C90.8868 21.5037 88.7595 22.5198 85.9491 22.5198C83.529 22.5198 81.5871 21.8076 80.1233 20.3832C78.6596 18.9588 77.9277 17.1641 77.9277 14.9991C77.9277 12.872 78.6498 11.0868 80.0941 9.64346C81.5188 8.2001 83.3729 7.47842 85.6563 7.47842C87.8227 7.47842 89.5889 8.2001 90.9551 9.64346C92.3603 11.0868 93.0629 12.872 93.0629 14.9991C93.0629 15.3979 93.0141 15.9012 92.9165 16.5089ZM81.8213 13.6602H89.2864C89.0717 12.7296 88.6326 12.0174 87.969 11.5236C87.325 11.0299 86.5541 10.783 85.6563 10.783C84.6415 10.783 83.8022 11.0393 83.1387 11.5521C82.4751 12.0459 82.036 12.7486 81.8213 13.6602Z" fill="black"/>
<path d="M97.8543 6.168C97.2298 6.168 96.6833 5.94959 96.2149 5.51279C95.7661 5.05699 95.5416 4.52522 95.5416 3.91749C95.5416 3.30976 95.7661 2.77799 96.2149 2.32219C96.6833 1.86639 97.2298 1.6385 97.8543 1.6385C98.4984 1.6385 99.0449 1.86639 99.4938 2.32219C99.9622 2.77799 100.196 3.30976 100.196 3.91749C100.196 4.52522 99.9622 5.05699 99.4938 5.51279C99.0449 5.94959 98.4984 6.168 97.8543 6.168ZM99.7572 22.121H95.9807V7.87724H99.7572V22.121Z" fill="black"/>
<path d="M114.59 9.558V2.17976H118.367V22.121H114.59V20.4402C113.478 21.8266 111.897 22.5198 109.848 22.5198C107.877 22.5198 106.189 21.7981 104.783 20.3547C103.398 18.8924 102.705 17.1072 102.705 14.9991C102.705 12.91 103.398 11.1343 104.783 9.67195C106.189 8.2096 107.877 7.47842 109.848 7.47842C111.897 7.47842 113.478 8.17161 114.59 9.558ZM107.623 17.9048C108.423 18.6455 109.399 19.0158 110.55 19.0158C111.722 19.0158 112.688 18.6455 113.449 17.9048C114.21 17.1451 114.59 16.1766 114.59 14.9991C114.59 13.8216 114.21 12.8625 113.449 12.1219C112.688 11.3622 111.722 10.9824 110.55 10.9824C109.38 10.9824 108.404 11.3622 107.623 12.1219C106.862 12.8625 106.481 13.8216 106.481 14.9991C106.481 16.1766 106.862 17.1451 107.623 17.9048Z" fill="black"/>
<path d="M134.573 20.3547C133.09 21.7981 131.256 22.5198 129.07 22.5198C126.884 22.5198 125.049 21.7981 123.566 20.3547C122.083 18.9114 121.341 17.1262 121.341 14.9991C121.341 12.891 122.083 11.1153 123.566 9.67195C125.069 8.2096 126.903 7.47842 129.07 7.47842C131.236 7.47842 133.071 8.2096 134.573 9.67195C136.076 11.1343 136.828 12.91 136.828 14.9991C136.828 17.1072 136.076 18.8924 134.573 20.3547ZM126.23 17.8194C126.991 18.56 127.938 18.9304 129.07 18.9304C130.202 18.9304 131.148 18.56 131.909 17.8194C132.67 17.0787 133.051 16.1386 133.051 14.9991C133.051 13.8596 132.67 12.9195 131.909 12.1788C131.148 11.4382 130.202 11.0678 129.07 11.0678C127.938 11.0678 126.991 11.4382 126.23 12.1788C125.488 12.9385 125.118 13.8786 125.118 14.9991C125.118 16.1196 125.488 17.0597 126.23 17.8194Z" fill="black"/>
<path d="M149 6.01276C150.921 6.01276 152.557 6.74716 153.907 8.21597C155.277 9.68478 155.962 11.4683 155.962 13.5666C155.962 15.7031 155.277 17.4962 153.907 18.9459C152.576 20.3956 150.94 21.1205 149 21.1205C147.002 21.1205 145.461 20.4243 144.377 19.0318V26.4426H140.696V6.41334H144.377V8.10152C145.461 6.70901 147.002 6.01276 149 6.01276ZM145.49 16.4852C146.232 17.2291 147.173 17.6011 148.315 17.6011C149.456 17.6011 150.398 17.2291 151.14 16.4852C151.9 15.7222 152.281 14.7493 152.281 13.5666C152.281 12.384 151.9 11.4206 151.14 10.6767C150.398 9.91369 149.456 9.53218 148.315 9.53218C147.173 9.53218 146.232 9.91369 145.49 10.6767C144.748 11.4206 144.377 12.384 144.377 13.5666C144.377 14.7493 144.748 15.7222 145.49 16.4852Z" fill="#FF7D35"/>
<path d="M169.571 8.10152V6.41334H173.252V20.7199H169.571V19.0318C168.468 20.4243 166.917 21.1205 164.92 21.1205C163.018 21.1205 161.382 20.3956 160.012 18.9459C158.661 17.4771 157.986 15.684 157.986 13.5666C157.986 11.4683 158.661 9.68478 160.012 8.21597C161.382 6.74716 163.018 6.01276 164.92 6.01276C166.917 6.01276 168.468 6.70901 169.571 8.10152ZM162.78 16.4852C163.522 17.2291 164.463 17.6011 165.605 17.6011C166.746 17.6011 167.688 17.2291 168.43 16.4852C169.191 15.7222 169.571 14.7493 169.571 13.5666C169.571 12.384 169.191 11.4206 168.43 10.6767C167.688 9.91369 166.746 9.53218 165.605 9.53218C164.463 9.53218 163.522 9.91369 162.78 10.6767C162.038 11.4206 161.667 12.384 161.667 13.5666C161.667 14.7493 162.038 15.7222 162.78 16.4852Z" fill="#FF7D35"/>
<path d="M182.895 16.0274L186.062 6.41334H190L184.807 20.7199C184.065 22.7801 183.076 24.268 181.839 25.1836C180.622 26.1183 179.1 26.5379 177.274 26.4426V23.009C178.244 23.0281 179.024 22.8182 179.613 22.3795C180.203 21.9408 180.669 21.235 181.012 20.2621L175.162 6.41334H179.185L182.895 16.0274Z" fill="#FF7D35"/>
</svg>
