<svg width="532" height="555" viewBox="0 0 532 555" fill="none" xmlns="http://www.w3.org/2000/svg">
<path d="M91.493 401.535C91.493 401.535 169.783 419.746 201.229 388.3L189.974 313.186C186.556 291.595 188.595 250.052 172.059 235.315C168.86 232.463 165.78 231.042 165.78 231.042C154.181 225.441 133.546 222.418 113.733 222.342C89.6668 222.247 64.8941 240.448 58.5746 263.67L84.6243 324.605L91.493 401.535Z" fill="#FF7B52"/>
<path d="M106.161 430.33C104.897 399.296 102.172 372.299 98.9179 353.466C93.7232 323.452 89.0488 306.187 89.0075 306C88.3138 303.364 78.4364 292.682 56.4767 293.008C34.517 293.341 36.5983 307.346 36.5983 307.346C36.5983 307.817 36.6643 308.261 36.7551 308.594C36.9698 309.315 57.1292 382.406 56.2538 476.784C56.2455 478.109 56.0968 480.398 56.1877 481.924C56.1877 481.931 107.077 483.235 107.094 481.924C108.869 473.676 108.002 450.82 106.161 430.33Z" fill="white"/>
<path d="M112.556 476.318C112.539 477.637 111.851 478.684 110.997 478.684H110.98C110.135 478.67 109.463 477.616 109.455 476.318H65.8382C65.8216 477.637 65.1333 478.684 64.2875 478.684H64.2626C63.4003 478.67 62.712 477.581 62.7203 476.249C62.9773 449.231 61.4433 424.01 59.1049 401.744C53.3087 346.217 42.5953 309.107 42.4377 308.593C42.3465 308.26 42.2802 307.823 42.2802 307.344C42.2802 307.344 40.1988 293.34 62.1564 293.007C84.1223 292.681 93.9982 303.363 94.6864 305.999C94.7196 306.138 97.3731 315.919 100.889 333.495C102.05 339.322 103.31 346.002 104.596 353.465C107.854 372.292 110.574 399.295 111.843 430.329C113.684 450.82 114.33 468.071 112.556 476.318Z" fill="#D2E3FC"/>
<path d="M59.5018 478.691H230.494C230.494 478.691 226.514 462.578 127.479 464.971C57.4037 466.671 59.5018 478.691 59.5018 478.691Z" fill="#C5DCF8"/>
<path d="M45.5889 646.998C65.4115 546.633 60.3085 485.044 60.2923 484.266C60.2439 482.727 63.0861 481.318 64.6202 481.27C66.1705 481.242 73.0095 480.812 73.8008 482.137C74.8424 483.871 78.8392 559.751 49.2869 646.998H45.5889Z" fill="#D1E6FA"/>
<path d="M205.235 647C185.403 546.636 190.5 485.046 190.527 484.269C190.58 482.729 187.73 481.321 186.199 481.273C184.651 481.245 177.81 480.815 177.013 482.14C175.978 483.874 171.978 559.753 201.527 647H205.235Z" fill="#D1E6FA"/>
<path d="M77.437 646.999C97.2597 546.634 92.1655 485.045 92.1407 484.267C92.0911 482.728 94.9359 481.319 96.4658 481.271C98.0205 481.243 104.86 480.813 105.653 482.138C106.695 483.872 110.69 559.751 81.1419 646.999H77.437Z" fill="#D1E6FA"/>
<path d="M233.947 483.829H56.2614C56.1712 483.829 56.0989 483.76 56.0989 483.677V474.681C56.0989 474.59 56.1712 474.521 56.2614 474.521H233.947C234.029 474.521 234.101 474.59 234.101 474.681V483.677C234.101 483.76 234.029 483.829 233.947 483.829Z" fill="white"/>
<path d="M170.42 397.396C170.42 397.396 263.001 420.245 283.511 435.362C304.031 450.485 327.083 610.999 327.083 610.999C327.083 610.999 324.834 612.555 320.05 612.723C315.586 612.88 306.043 609.581 306.043 609.581C306.043 609.581 261.608 535.294 259.402 517.232C257.204 499.163 259.204 483.329 251.286 482.333C243.367 481.329 143.401 486.642 130.321 459.161C117.241 431.681 131.525 406.444 131.525 406.444L170.42 397.396Z" fill="black"/>
<path d="M152.371 407.303C152.371 407.303 247.154 421.477 267.674 436.594C288.184 451.717 311.243 612.231 311.243 612.231C311.243 612.231 308.989 613.787 304.197 613.955C299.748 614.111 290.194 610.814 290.194 610.814C290.194 610.814 260.246 539 253.746 516.5C241.246 495 243.358 484.562 235.436 483.565C227.523 482.561 127.559 487.874 114.479 460.393C101.408 432.912 105.5 407.675 105.5 407.675L152.371 407.303Z" fill="#303030"/>
<path d="M127.687 647C129.237 647 130.562 645.911 130.831 644.42L146.249 557.04L168.415 431.372L174.617 396.231L158.826 395.781L156.081 416.181L136.851 559.537L125.434 644.517C125.261 645.835 126.318 647 127.687 647Z" fill="white"/>
<path d="M515.547 645.972C514.009 645.972 512.694 644.892 512.428 643.412L497.136 556.748L475.151 432.109L469 397.256L484.662 396.809L487.385 417.042L506.457 559.225L517.78 643.509C517.952 644.816 516.904 645.972 515.547 645.972Z" fill="white"/>
<path d="M156.08 416.18C166.31 420.697 168.415 431.372 168.415 431.372L174.617 396.231L158.826 395.781L156.08 416.18Z" fill="#97BADD"/>
<path d="M107.811 410.026H530.944C531.107 410.026 531.237 409.894 531.237 409.735V392.824C531.237 392.664 531.107 392.532 530.944 392.532H107.811C107.648 392.532 107.518 392.664 107.518 392.824V409.735C107.518 409.894 107.648 410.026 107.811 410.026Z" fill="white"/>
<path d="M201.967 193.384C206.548 197.783 208.288 204.627 203.923 209.911C199.811 214.884 191.853 215.94 186.718 211.974C174.317 202.404 187.243 184.746 200.623 188.402C203.098 189.079 202.48 192.609 200.033 192.749C196.12 192.972 191.933 193.121 188.808 195.863C185.451 198.808 185.377 203.788 188.131 207.176C195.425 216.143 208.093 202.938 200.431 194.92C199.466 193.91 200.958 192.415 201.967 193.384Z" fill="#FF7B52"/>
<path d="M74.2659 208.531C72.5856 214.767 70.7394 220.93 68.8165 227.094C68.355 228.579 66.9502 229.044 65.6769 228.178C60.6654 224.774 55.6539 221.428 50.907 217.659C49.9948 216.934 50.1937 215.473 51.0949 214.853C56.6555 211.038 64.1608 205.408 71.2137 205.368C73.0089 205.357 74.2604 207.882 72.4415 208.931C69.5974 210.573 66.1858 211.158 63.1465 212.421C59.6364 213.88 56.1629 215.592 53.0634 217.805C52.9959 216.781 52.9265 215.758 52.8572 214.734C58.1606 218 63.1556 221.663 68.2017 225.312C67.2093 225.511 66.2168 225.711 65.2226 225.908C67.3753 219.819 69.5846 213.775 71.9708 207.774C72.4762 206.508 74.6252 207.202 74.2659 208.531Z" fill="#FF7B52"/>
<path d="M39.0869 241.554C31.6417 237.987 24.016 233.886 17.3061 229.07C14.8395 227.304 17.266 223.852 19.8657 225.213C27.0408 228.971 34.0316 233.826 40.4332 238.777C41.7175 239.77 40.7744 242.36 39.0869 241.554Z" fill="black"/>
<path d="M313.471 264.316C315.029 256.207 317.058 247.791 320.007 240.078C321.093 237.243 325.046 238.712 324.391 241.574C322.582 249.468 319.663 257.464 316.501 264.913C315.866 266.407 313.121 266.153 313.471 264.316Z" fill="#FFC93E"/>
<path d="M290.028 192.53L290.446 192.158C292.292 190.525 295.319 190.204 297.112 192.158C298.927 194.134 298.862 196.848 297.112 198.824L296.74 199.244C295.091 201.108 291.69 201.053 290.028 199.244C288.375 197.443 288.042 194.287 290.028 192.53Z" fill="black"/>
<path d="M99.2337 273.031C99.2337 273.031 64.1626 340.581 81.5778 344.178C138.862 356.013 172.114 365.72 172.114 365.72L175.035 387.966C174.179 391.328 59.1347 388.42 45.5105 372.963C35.8872 362.051 23.0967 336.83 50.3067 282.24L58.5746 263.67L99.2337 273.031Z" fill="white"/>
<path d="M165.092 238.234L252.442 272.053L255.176 226.228L273.878 218.994C273.878 218.994 300.995 292.546 267.084 306.241C233.169 319.937 194.955 294.631 194.955 294.631L165.092 238.234Z" fill="white"/>
<path d="M154.287 227.005C184.775 236.717 202.958 248.101 245.879 266.002L223.84 315.151L185.849 302.954L154.287 227.005Z" fill="#FF7B52"/>
<path d="M104.488 263.67L82.3316 315.151L32.363 306.028L66.0274 248.05L105.884 263.67" fill="#FF7B52"/>
<path d="M130.632 298.767C119.989 298.174 109.479 298.636 98.8451 298.776C97.9165 298.789 97.9694 297.473 98.8451 297.371C109.322 296.116 120.146 296.62 130.632 297.521C131.42 297.588 131.441 298.813 130.632 298.767Z" fill="black"/>
<path d="M82.9644 239.06C118.919 242.307 94.3265 295.321 85.1136 311.373C84.5973 312.267 83.2198 311.462 83.7288 310.563C92.887 294.348 117.399 245.014 82.8441 239.936C82.3515 239.864 82.4627 239.016 82.9644 239.06Z" fill="black"/>
<path d="M182.615 269.368C187.043 287.024 190.013 305.384 191.109 323.563C191.155 324.313 189.885 324.506 189.777 323.744C187.203 305.668 184.616 287.644 181.719 269.616C181.626 269.039 182.467 268.777 182.615 269.368Z" fill="black"/>
<path d="M98.4585 171.441C97.9075 163.85 97.3565 156.259 96.8092 148.666C90.84 146.986 87.7386 139.351 90.1212 133.628C92.5001 127.905 99.2648 124.69 105.402 125.566C101.529 122.93 101.828 116.634 105.006 113.19C108.184 109.747 113.164 108.633 117.847 108.452C122.529 108.271 127.268 108.839 131.875 107.983C135.958 107.226 139.955 105.358 144.074 105.878C148.194 106.396 152.129 111.03 149.908 114.538C155.848 113.666 162.274 112.871 167.552 115.737C172.829 118.601 175.478 126.752 170.943 130.687C173.94 132.214 174.688 136.55 173.003 139.462C171.319 142.372 167.871 143.901 164.516 144.141C161.161 144.382 157.835 143.534 154.581 142.691" fill="black"/>
<path d="M99.4271 156.678L100.626 172.459C100.626 172.459 87.2076 174.267 91.0333 186.504C94.8553 198.742 104.035 193.389 104.035 193.389C104.035 193.389 106.329 224.748 138.455 214.805C164.021 206.891 162.458 173.785 159.212 145.559C157.954 134.626 147.612 127.106 136.808 129.211L117.495 132.973C106.332 135.147 98.566 145.336 99.4271 156.678Z" fill="white"/>
<path d="M100.625 185.554L109.282 231.713C111.23 242.114 121.485 248.765 131.776 246.312C141.313 244.033 147.423 234.718 145.708 225.064L141.01 198.609L100.625 185.554Z" fill="white"/>
<path d="M136.158 186.074C136.109 186.056 136.012 186.723 136.957 187.183C137.944 187.621 139.517 186.665 139.922 185.102C140.447 183.596 140.369 181.77 140.285 179.899C140.182 177.965 140.071 175.903 139.958 173.74C139.411 165.003 138.628 157.946 138.21 157.972C137.791 157.997 137.897 165.098 138.444 173.834C138.601 175.994 138.749 178.054 138.889 179.986C139.057 181.878 139.21 183.529 138.894 184.797C138.663 186.081 137.725 186.711 137.114 186.612C136.492 186.508 136.266 185.994 136.158 186.074Z" fill="black"/>
<path d="M146.581 211.584C146.438 211.392 144.93 212.439 142.277 213.618C139.643 214.803 135.768 216.015 131.377 216.106C126.985 216.201 123.061 215.154 120.381 214.079C117.681 213.014 116.127 212.031 115.994 212.228C115.886 212.37 117.24 213.687 119.942 215.059C122.616 216.433 126.739 217.724 131.408 217.624C136.078 217.527 140.143 216.062 142.755 214.577C145.397 213.094 146.696 211.72 146.581 211.584Z" fill="black"/>
<path d="M140.303 192.55C140.128 192.397 139.42 193.081 138.07 193.68C136.751 194.283 134.668 194.73 132.608 194.075C130.55 193.406 129.116 191.83 128.397 190.569C127.649 189.298 127.472 188.329 127.237 188.353C127.06 188.349 126.836 189.42 127.427 191.027C127.983 192.596 129.554 194.674 132.143 195.52C134.739 196.339 137.225 195.568 138.592 194.617C140.009 193.654 140.453 192.652 140.303 192.55Z" fill="black"/>
<path d="M99.6142 188.035C99.6324 187.807 98.8353 187.69 97.9432 187.145C97.5035 186.862 97.1149 186.459 96.9762 185.897C96.8321 185.322 96.9945 184.789 97.4415 184.647C97.81 184.505 98.1602 184.624 98.2423 184.76L99.5303 184.089C98.3207 181.59 97.239 179.867 96.9252 180.008C96.6096 180.147 97.1605 182.104 98.2003 184.678L99.4883 184.009C98.9483 183.087 97.7589 182.879 96.9015 183.228C96.2757 183.436 95.7211 184.063 95.5733 184.658C95.3927 185.264 95.4693 185.851 95.6481 186.333C96.0021 187.323 96.8394 187.902 97.4834 188.115C98.8316 188.54 99.6197 188.206 99.6142 188.035Z" fill="black"/>
<path d="M124.349 156.934C124.512 156.558 122.837 155.675 120.719 156.237C118.597 156.788 117.572 158.378 117.897 158.628C118.208 158.928 119.44 158.119 121.104 157.705C122.757 157.249 124.225 157.348 124.349 156.934Z" fill="black"/>
<path d="M152.124 152.531C152.316 152.172 150.649 151.076 148.317 151.287C145.986 151.484 144.533 152.854 144.785 153.174C145.017 153.539 146.537 152.946 148.448 152.8C150.358 152.612 151.958 152.931 152.124 152.531Z" fill="black"/>
<path d="M100.625 172.459C109.59 163.717 112.226 149.151 114.66 136.868C122.964 142.916 134.386 144.402 143.96 140.684C146.967 144.215 150.497 147.299 154.399 149.802C155.508 150.514 156.826 151.205 158.086 150.824C159.593 150.372 160.263 148.646 160.62 147.115C161.766 142.217 161.808 136.972 160.098 132.24C158.391 127.509 154.81 123.353 150.116 121.536C145.101 119.595 139.458 120.438 134.251 121.788C126.408 123.822 118.848 126.945 111.859 131.041C104.996 135.062 98.4047 140.378 95.4949 147.779C92.5832 155.179 92.596 169.56 99.6143 173.302" fill="black"/>
<path d="M121.928 169.783C122.346 169.753 122.607 168.644 122.512 167.307C122.417 165.968 121.999 164.908 121.582 164.939C121.164 164.968 120.903 166.077 120.998 167.415C121.093 168.752 121.51 169.814 121.928 169.783Z" fill="black"/>
<path d="M147.725 166.491C148.141 166.46 148.403 165.353 148.307 164.014C148.212 162.677 147.796 161.617 147.376 161.646C146.96 161.675 146.698 162.784 146.794 164.123C146.889 165.461 147.305 166.521 147.725 166.491Z" fill="black"/>
<path d="M274.826 220.523C274.826 220.523 270.946 196.697 266.31 196.954C261.674 197.211 252.405 196.952 252.405 196.952C252.405 196.952 251.631 174.29 249.055 177.897C246.481 181.502 245.669 211.99 255.605 226.62L274.826 220.523Z" fill="white"/>
<path d="M172.114 365.72C172.114 365.72 213.678 372.994 212.866 378.387C212.054 383.777 209.133 389.218 209.133 389.218L172.114 388.346V365.72Z" fill="white"/>
<path d="M127.002 390.524L127.316 384.77L212.924 379.534L241.634 302.735L335.598 307.901L303.541 390.951L127.002 390.524Z" fill="white"/>
<path d="M276.844 353.842C281.987 353.842 286.29 349.821 286.575 344.623C286.87 339.245 282.751 334.644 277.371 334.347C277.189 334.338 277.008 334.332 276.828 334.332C271.687 334.332 267.383 338.355 267.096 343.551C266.801 348.932 270.922 353.532 276.3 353.827C276.483 353.838 276.665 353.842 276.844 353.842ZM276.828 337.122C276.957 337.122 277.088 337.125 277.218 337.133C281.06 337.344 284.003 340.63 283.793 344.47C283.588 348.181 280.514 351.054 276.844 351.054C276.714 351.054 276.585 351.051 276.453 351.043C272.613 350.832 269.671 347.548 269.882 343.704C270.085 339.995 273.157 337.122 276.828 337.122Z" fill="#7684C7"/>
<path d="M276.844 351.054C280.514 351.054 283.588 348.181 283.793 344.47C284.002 340.63 281.06 337.344 277.218 337.133C277.088 337.125 276.957 337.122 276.827 337.122C273.157 337.122 270.085 339.995 269.882 343.704C269.67 347.548 272.613 350.832 276.453 351.043C276.585 351.051 276.714 351.054 276.844 351.054Z" fill="#ACB0DA"/>
<path d="M62.0974 120.394C63.2103 122.552 59.5726 178.342 59.5726 178.342L32.0998 176.058L35.3052 190.788L21.8817 175.652L-4.99992 172.543L-3.36711 118.468L62.0974 120.394Z" fill="white"/>
<path d="M27.4387 156.831L22.7394 146.426L22.9448 144.089L24.8017 144.252C25.8953 144.348 26.8347 144.187 27.62 143.768C28.4072 143.328 28.9428 142.675 29.2269 141.809L23.1918 141.278L23.3972 138.941L29.4013 139.469C29.2859 138.653 28.9625 137.956 28.431 137.379C27.9014 136.781 27.1208 136.436 26.0892 136.346L23.6442 136.131L23.8496 133.794L37.8076 135.021L37.6022 137.358L32.7432 136.93C33.395 137.794 33.7666 138.771 33.8579 139.861L37.3552 140.168L37.1498 142.505L33.7145 142.203C33.3712 143.743 32.6759 144.912 31.6284 145.711C30.5828 146.489 29.2827 146.969 27.7282 147.15L32.9476 157.315L27.4387 156.831Z" fill="#DADADA"/>
<path d="M24.6516 156.831L19.9523 146.426L20.1577 144.089L22.0146 144.252C23.1082 144.348 24.0476 144.187 24.8329 143.768C25.6201 143.328 26.1557 142.675 26.4398 141.809L20.4047 141.278L20.6101 138.941L26.6142 139.469C26.4988 138.653 26.1754 137.956 25.6439 137.379C25.1143 136.781 24.3337 136.436 23.3021 136.346L20.8571 136.131L21.0625 133.794L35.0205 135.021L34.8151 137.358L29.9561 136.93C30.6079 137.794 30.9795 138.771 31.0708 139.861L34.5681 140.168L34.3627 142.505L30.9273 142.203C30.5841 143.743 29.8887 144.912 28.8413 145.711C27.7957 146.489 26.4956 146.969 24.9411 147.15L30.1605 157.315L24.6516 156.831Z" fill="#FF7B52"/>
<path d="M265.983 258.73C265.605 256.231 265.678 253.852 264.279 251.65C261.492 247.262 257.533 248.366 253.702 250.296C249.796 252.261 246.118 253.441 241.874 251.602C235.243 248.734 232.133 238.733 238.459 234.03C240.508 232.507 242.526 235.021 242.252 236.947C241.867 239.636 240.534 242.597 242.84 244.909C245.921 247.999 249.533 245.403 252.609 244.019C255.929 242.519 259.459 242.191 262.885 243.575C268.785 245.96 273.063 253.959 268.38 259.363C267.718 260.126 266.14 259.781 265.983 258.73Z" fill="#FDFDFF"/>
<path d="M178.871 263.564C170.906 261.392 162.667 258.726 155.2 255.196C152.46 253.897 154.226 250.066 157.026 250.94C164.762 253.348 172.511 256.869 179.698 260.591C181.139 261.337 180.673 264.055 178.871 263.564Z" fill="black"/>
<path d="M218.395 271.856C216.717 278.09 214.869 284.254 212.946 290.419C212.485 291.904 211.08 292.369 209.806 291.502C204.795 288.1 199.784 284.752 195.037 280.983C194.123 280.259 194.323 278.798 195.226 278.177C200.785 274.363 208.29 268.733 215.343 268.693C217.139 268.682 218.39 271.207 216.571 272.256C213.727 273.897 210.316 274.483 207.274 275.747C203.766 277.205 200.293 278.918 197.195 281.127C197.126 280.106 197.056 279.082 196.987 278.061C202.29 281.326 207.287 284.988 212.331 288.638C211.339 288.835 210.346 289.034 209.352 289.235C211.505 283.145 213.714 277.099 216.1 271.097C216.606 269.833 218.755 270.526 218.395 271.856Z" fill="#DDDDF2"/>
<path d="M207.441 334.259C199.211 334.871 190.558 335.113 182.338 334.305C179.318 334.008 179.691 329.886 182.622 329.773C190.713 329.456 199.196 330.162 207.216 331.238C208.825 331.455 209.307 334.121 207.441 334.259Z" fill="#FDFDFF"/>
<path d="M330.228 107.762L325.567 163.383H223.143L217.471 182.952L211.494 161.491L191.976 160.358L200.973 110.541L330.228 107.762Z" fill="white"/>
<g clip-path="url(#clip0)">
<mask id="path-52-inside-1" fill="white">
<path fill-rule="evenodd" clip-rule="evenodd" d="M210.589 128.414L225.827 129.449C226.039 129.463 226.237 129.3 226.313 129.048C226.388 128.797 226.322 128.519 226.15 128.368L218.929 121.988C218.785 121.86 218.592 121.847 218.432 121.954L210.414 127.299C210.224 127.426 210.121 127.692 210.161 127.951C210.202 128.21 210.376 128.399 210.589 128.414ZM218.127 125.348L218.772 125.392C219.034 125.409 219.228 125.689 219.206 126.017C219.184 126.344 218.953 126.595 218.692 126.577L218.047 126.533C217.785 126.516 217.591 126.236 217.613 125.908C217.635 125.581 217.865 125.33 218.127 125.348ZM211.16 129.643L211.119 130.236C211.097 130.564 211.292 130.843 211.553 130.861L224.542 131.743C224.804 131.761 225.035 131.51 225.057 131.183L225.097 130.59L211.16 129.643ZM217.12 132.43L215.223 132.301L214.837 137.979L216.734 138.107L217.12 132.43ZM213.528 132.186L211.631 132.057L211.245 137.735L213.142 137.863L213.528 132.186ZM218.815 132.545L220.712 132.674L220.326 138.351L218.429 138.223L218.815 132.545ZM224.304 132.918L222.407 132.789L222.021 138.467L223.918 138.595L224.304 132.918ZM209.882 138.833L225.12 139.868C225.382 139.886 225.576 140.166 225.554 140.493L225.447 142.074C225.424 142.401 225.194 142.652 224.932 142.634L209.694 141.599C209.432 141.582 209.238 141.302 209.26 140.974L209.368 139.394C209.39 139.066 209.62 138.815 209.882 138.833Z"/>
</mask>
<path d="M225.827 129.449L225.759 130.446L225.827 129.449ZM210.589 128.414L210.656 127.416L210.589 128.414ZM226.313 129.048L227.271 129.335L227.271 129.335L226.313 129.048ZM226.15 128.368L226.812 127.619L226.813 127.619L226.15 128.368ZM218.929 121.988L219.591 121.238L219.591 121.239L218.929 121.988ZM218.432 121.954L218.987 122.786L218.987 122.786L218.432 121.954ZM210.414 127.299L210.969 128.131L210.969 128.131L210.414 127.299ZM210.161 127.951L209.173 128.105L209.173 128.105L210.161 127.951ZM218.692 126.577L218.759 125.579L218.692 126.577ZM218.047 126.533L217.979 127.531L218.047 126.533ZM211.119 130.236L212.117 130.304L211.119 130.236ZM211.16 129.643L210.162 129.576L210.23 128.578L211.227 128.646L211.16 129.643ZM211.553 130.861L211.621 129.863L211.553 130.861ZM224.542 131.743L224.475 132.741L224.542 131.743ZM225.057 131.183L224.059 131.115L225.057 131.183ZM225.097 130.59L225.165 129.592L226.163 129.66L226.095 130.658L225.097 130.59ZM215.223 132.301L214.225 132.234L214.293 131.236L215.291 131.304L215.223 132.301ZM217.12 132.43L217.188 131.433L218.185 131.5L218.118 132.498L217.12 132.43ZM214.837 137.979L214.77 138.976L213.772 138.909L213.84 137.911L214.837 137.979ZM216.734 138.107L217.732 138.175L217.664 139.173L216.667 139.105L216.734 138.107ZM211.631 132.057L210.633 131.99L210.701 130.992L211.699 131.06L211.631 132.057ZM213.528 132.186L213.596 131.189L214.593 131.256L214.526 132.254L213.528 132.186ZM211.245 137.735L211.178 138.732L210.18 138.665L210.248 137.667L211.245 137.735ZM213.142 137.863L214.14 137.931L214.072 138.929L213.074 138.861L213.142 137.863ZM220.712 132.674L220.78 131.677L221.777 131.744L221.71 132.742L220.712 132.674ZM218.815 132.545L217.817 132.478L217.885 131.48L218.883 131.548L218.815 132.545ZM220.326 138.351L221.324 138.419L221.256 139.417L220.259 139.349L220.326 138.351ZM218.429 138.223L218.362 139.22L217.364 139.153L217.432 138.155L218.429 138.223ZM222.407 132.789L221.409 132.722L221.477 131.724L222.475 131.792L222.407 132.789ZM224.304 132.918L224.372 131.921L225.369 131.988L225.301 132.986L224.304 132.918ZM222.021 138.467L221.954 139.464L220.956 139.397L221.024 138.399L222.021 138.467ZM223.918 138.595L224.916 138.663L224.848 139.661L223.85 139.593L223.918 138.595ZM225.12 139.868L225.052 140.866L225.12 139.868ZM209.882 138.833L209.95 137.835L209.882 138.833ZM225.554 140.493L226.552 140.561L225.554 140.493ZM225.447 142.074L224.449 142.006L225.447 142.074ZM224.932 142.634L225 141.637L224.932 142.634ZM209.694 141.599L209.626 142.597L209.694 141.599ZM225.759 130.446L210.521 129.411L210.656 127.416L225.895 128.451L225.759 130.446ZM227.271 129.335C227.105 129.89 226.572 130.501 225.759 130.446L225.895 128.451C225.713 128.439 225.57 128.507 225.485 128.576C225.403 128.644 225.368 128.716 225.355 128.762L227.271 129.335ZM226.813 127.619C227.326 128.073 227.437 128.779 227.271 129.335L225.355 128.762C225.341 128.807 225.339 128.854 225.351 128.903C225.362 128.949 225.395 129.035 225.488 129.117L226.813 127.619ZM219.591 121.239L226.812 127.619L225.488 129.117L218.267 122.737L219.591 121.239ZM217.877 121.122C218.415 120.763 219.107 120.811 219.591 121.238L218.267 122.737C218.35 122.811 218.472 122.871 218.619 122.881C218.765 122.891 218.894 122.848 218.987 122.786L217.877 121.122ZM209.86 126.467L217.877 121.122L218.987 122.786L210.969 128.131L209.86 126.467ZM209.173 128.105C209.084 127.533 209.289 126.847 209.86 126.467L210.969 128.131C211.072 128.062 211.117 127.982 211.134 127.937C211.152 127.89 211.157 127.844 211.15 127.797L209.173 128.105ZM210.521 129.411C209.708 129.356 209.263 128.679 209.173 128.105L211.15 127.797C211.142 127.75 211.117 127.674 211.045 127.596C210.971 127.515 210.838 127.428 210.656 127.416L210.521 129.411ZM218.704 126.389L218.06 126.345L218.195 124.35L218.84 124.394L218.704 126.389ZM218.208 125.949C218.205 125.996 218.214 126.072 218.274 126.158C218.335 126.246 218.478 126.374 218.704 126.389L218.84 124.394C219.849 124.462 220.249 125.425 220.204 126.084L218.208 125.949ZM218.759 125.579C218.533 125.564 218.374 125.671 218.302 125.75C218.231 125.827 218.212 125.902 218.208 125.949L220.204 126.084C220.159 126.744 219.633 127.643 218.624 127.575L218.759 125.579ZM218.115 125.536L218.759 125.579L218.624 127.575L217.979 127.531L218.115 125.536ZM218.61 125.976C218.614 125.929 218.604 125.853 218.545 125.767C218.483 125.679 218.341 125.551 218.115 125.536L217.979 127.531C216.97 127.463 216.57 126.5 216.615 125.841L218.61 125.976ZM218.06 126.345C218.286 126.361 218.444 126.254 218.517 126.175C218.588 126.098 218.607 126.023 218.61 125.976L216.615 125.841C216.66 125.181 217.186 124.282 218.195 124.35L218.06 126.345ZM210.122 130.168L210.162 129.576L212.157 129.711L212.117 130.304L210.122 130.168ZM211.486 131.859C210.477 131.79 210.077 130.828 210.122 130.168L212.117 130.304C212.12 130.257 212.111 130.18 212.051 130.094C211.99 130.006 211.848 129.879 211.621 129.863L211.486 131.859ZM224.475 132.741L211.486 131.859L211.621 129.863L224.61 130.746L224.475 132.741ZM226.055 131.251C226.01 131.91 225.484 132.81 224.475 132.741L224.61 130.746C224.384 130.73 224.225 130.837 224.153 130.916C224.082 130.994 224.062 131.068 224.059 131.115L226.055 131.251ZM226.095 130.658L226.055 131.251L224.059 131.115L224.099 130.522L226.095 130.658ZM211.227 128.646L225.165 129.592L225.029 131.588L211.092 130.641L211.227 128.646ZM215.291 131.304L217.188 131.433L217.052 133.428L215.155 133.299L215.291 131.304ZM213.84 137.911L214.225 132.234L216.221 132.369L215.835 138.046L213.84 137.911ZM216.667 139.105L214.77 138.976L214.905 136.981L216.802 137.11L216.667 139.105ZM218.118 132.498L217.732 138.175L215.737 138.04L216.122 132.363L218.118 132.498ZM211.699 131.06L213.596 131.189L213.46 133.184L211.563 133.055L211.699 131.06ZM210.248 137.667L210.633 131.99L212.629 132.125L212.243 137.802L210.248 137.667ZM213.074 138.861L211.178 138.732L211.313 136.737L213.21 136.866L213.074 138.861ZM214.526 132.254L214.14 137.931L212.145 137.796L212.53 132.119L214.526 132.254ZM220.644 133.672L218.747 133.543L218.883 131.548L220.78 131.677L220.644 133.672ZM219.329 138.284L219.714 132.607L221.71 132.742L221.324 138.419L219.329 138.284ZM218.497 137.225L220.394 137.354L220.259 139.349L218.362 139.22L218.497 137.225ZM219.813 132.613L219.427 138.29L217.432 138.155L217.817 132.478L219.813 132.613ZM222.475 131.792L224.372 131.921L224.236 133.916L222.339 133.787L222.475 131.792ZM221.024 138.399L221.409 132.722L223.405 132.857L223.019 138.534L221.024 138.399ZM223.85 139.593L221.954 139.464L222.089 137.469L223.986 137.598L223.85 139.593ZM225.301 132.986L224.916 138.663L222.92 138.528L223.306 132.851L225.301 132.986ZM225.052 140.866L209.814 139.831L209.95 137.835L225.188 138.87L225.052 140.866ZM224.556 140.425C224.553 140.472 224.562 140.549 224.622 140.635C224.683 140.723 224.826 140.85 225.052 140.866L225.188 138.87C226.197 138.939 226.596 139.902 226.552 140.561L224.556 140.425ZM224.449 142.006L224.556 140.425L226.552 140.561L226.444 142.142L224.449 142.006ZM225 141.637C224.774 141.621 224.615 141.728 224.543 141.807C224.472 141.885 224.452 141.959 224.449 142.006L226.444 142.142C226.4 142.801 225.874 143.701 224.864 143.632L225 141.637ZM209.762 140.602L225 141.637L224.864 143.632L209.626 142.597L209.762 140.602ZM210.258 141.042C210.261 140.995 210.252 140.919 210.192 140.833C210.131 140.745 209.988 140.617 209.762 140.602L209.626 142.597C208.617 142.529 208.218 141.566 208.263 140.907L210.258 141.042ZM210.365 139.461L210.258 141.042L208.263 140.907L208.37 139.326L210.365 139.461ZM209.814 139.831C210.041 139.846 210.199 139.739 210.272 139.66C210.343 139.583 210.362 139.508 210.365 139.461L208.37 139.326C208.415 138.667 208.941 137.767 209.95 137.835L209.814 139.831Z" fill="#FFC368" mask="url(#path-52-inside-1)"/>
</g>
<path d="M318.754 128.31C290.957 125.306 263.151 123.822 235.165 125.896C234.166 125.972 234.268 123.87 235.272 123.822C263.178 122.451 291.163 122.671 318.847 126.509C319.703 126.628 319.624 128.406 318.754 128.31Z" fill="#010101"/>
<path d="M317.178 139.245C289.053 136.222 260.921 134.721 232.606 136.779C231.598 136.852 231.699 134.752 232.714 134.704C260.947 133.35 289.261 133.586 317.271 137.444C318.138 137.562 318.059 139.339 317.178 139.245Z" fill="#010101"/>
<path d="M287.778 146.428C269.139 146.425 250.872 143.499 232.179 144.768C231.19 144.834 231.285 142.8 232.283 142.762C250.92 142.077 269.282 144.012 287.868 144.687C288.734 144.717 288.64 146.428 287.778 146.428Z" fill="#010101"/>
<path d="M376.95 363.502C379.225 363.047 385.361 358.274 390.363 345.089C393.219 337.557 401.274 298.716 390.363 295.989C379.451 293.26 381.498 312.81 381.498 330.767C381.498 341.716 376.95 363.502 376.95 363.502Z" fill="#FF7B52"/>
<path d="M371.95 365.32C377.688 364.938 376.496 306.9 376.95 293.26C377.406 279.621 380.133 228.703 372.404 220.52C364.675 212.336 356.72 219.611 356.038 230.18C355.714 235.192 357.402 271.666 358.311 282.122C359.221 292.578 360.357 316.219 361.266 331.223C362.176 346.225 365.129 365.775 371.95 365.32Z" fill="#FF7B52"/>
<path d="M361.266 366.001C361.266 366.001 348.527 340.871 345.353 321.447C339.671 286.668 338.534 252.798 346.264 253.253C353.991 253.709 354.551 287.809 354.901 302.354C355.81 340.088 364.675 363.728 364.675 363.728L361.266 366.001Z" fill="#FF7B52"/>
<path d="M362.334 364.971L362.925 364.759C362.88 364.634 358.391 352.177 355.424 343.847C349.599 327.489 348.631 305.74 348.624 305.523L347.996 305.549C348.005 305.768 348.975 327.609 354.833 344.058C357.801 352.389 362.289 364.847 362.334 364.971Z" fill="black"/>
<path d="M370.044 361.455H370.672C370.672 353.693 369.32 330.978 369.308 330.748L368.682 330.787C368.694 331.015 370.044 353.712 370.044 361.455Z" fill="black"/>
<path d="M379.172 363.28C379.22 363.164 383.986 351.546 386.688 341.076C389.397 330.578 388.75 320.616 388.743 320.517L388.116 320.561C388.124 320.658 388.763 330.524 386.081 340.918C383.389 351.346 378.64 362.925 378.594 363.041L379.172 363.28Z" fill="black"/>
<path d="M366.948 331.223C366.948 332.164 367.713 332.927 368.654 332.927C369.595 332.927 370.359 332.164 370.359 331.223C370.359 330.281 369.595 329.518 368.654 329.518C367.713 329.518 366.948 330.281 366.948 331.223Z" fill="white"/>
<path d="M386.726 320.765C386.726 321.708 387.489 322.471 388.43 322.471C389.372 322.471 390.135 321.708 390.135 320.765C390.135 319.824 389.372 319.061 388.43 319.061C387.489 319.061 386.726 319.824 386.726 320.765Z" fill="white"/>
<path d="M346.605 305.535C346.605 306.478 347.368 307.241 348.309 307.241C349.25 307.241 350.014 306.478 350.014 305.535C350.014 304.594 349.25 303.831 348.309 303.831C347.368 303.831 346.605 304.594 346.605 305.535Z" fill="white"/>
<path d="M383.995 358.274H357.632L362.226 392.075H379.401L383.995 358.274Z" fill="black"/>
<defs>
<clipPath id="clip0">
<rect width="16.2244" height="20.2805" fill="white" transform="matrix(-0.997701 -0.0677698 -0.0677698 0.997701 226.781 122.433)"/>
</clipPath>
</defs>
</svg>
