<svg width="477" height="556" viewBox="0 0 477 556" fill="none" xmlns="http://www.w3.org/2000/svg">
<path d="M490.708 1C463.286 26.5917 391.845 45.7344 363.839 165.51C335.833 285.285 374.281 324.101 232.228 362.164C110.112 394.885 141.374 501.586 116.78 564.312" stroke="#E9C8C1"/>
<path d="M564.835 68.1479C537.413 93.7396 465.972 112.882 437.966 232.658C409.96 352.433 448.408 391.249 306.355 429.312C184.24 462.033 215.501 568.734 190.907 631.46" stroke="#E9C8C1"/>
<path d="M629.516 120.986C601.923 146.624 530.099 165.869 501.794 285.724C473.488 405.58 512.075 444.359 369.263 482.626C246.495 515.521 277.769 622.219 252.968 685" stroke="#E9C8C1"/>
<path d="M293.028 257.543C292.787 267.733 279.751 293.818 279.751 293.818C279.751 293.818 265.278 267.086 265.519 256.895C265.759 246.705 281.541 218 281.541 218C281.541 218 293.266 247.352 293.028 257.543Z" fill="#FFC368"/>
<path d="M219.648 276.505C226.525 284.031 235.154 311.884 235.154 311.884C235.154 311.884 206.21 302.591 199.334 295.065C192.459 287.54 184 255.895 184 255.895C184 255.895 212.774 268.982 219.648 276.505Z" fill="#FFC368"/>
<path d="M336.998 276.505C330.122 284.031 321.493 311.884 321.493 311.884C321.493 311.884 350.436 302.591 357.313 295.065C364.188 287.54 372.647 255.895 372.647 255.895C372.647 255.895 343.873 268.982 336.998 276.505Z" fill="#FFC368"/>
<path d="M280.195 491.326H279.186V252.971H280.195V491.326Z" fill="#FF7B52"/>
<path d="M261.661 489.243C261.621 488.232 257.585 387.694 251.854 353.301C244.957 311.926 205.475 281.716 205.078 281.415L205.683 280.61C206.084 280.912 245.884 311.359 252.847 353.136C258.589 387.59 262.628 488.19 262.67 489.203L261.661 489.243Z" fill="#FF7B52"/>
<path d="M296.669 489.243L295.661 489.203C295.703 488.19 299.741 387.59 305.484 353.136C312.447 311.359 352.246 280.912 352.648 280.61L353.252 281.415C352.855 281.716 313.373 311.926 306.477 353.301C300.745 387.694 296.709 488.232 296.669 489.243Z" fill="#FF7B52"/>
<path d="M295.317 478.212H258.534C258.534 478.212 250.413 482.026 249.45 494.382C247.694 516.902 261.798 556.522 261.798 556.522H296.504C296.504 556.522 308.035 509.242 305.488 494.382C303.443 482.456 295.317 478.212 295.317 478.212Z" fill="#303030"/>
<path d="M208.667 281.976C208.667 283.21 207.665 284.209 206.431 284.209C205.197 284.209 204.198 283.21 204.198 281.976C204.198 280.742 205.197 279.74 206.431 279.74C207.665 279.74 208.667 280.742 208.667 281.976Z" fill="#FF7B52"/>
<path d="M282.013 252.531C282.013 253.767 281.013 254.767 279.778 254.767C278.544 254.767 277.544 253.767 277.544 252.531C277.544 251.298 278.544 250.298 279.778 250.298C281.013 250.298 282.013 251.298 282.013 252.531Z" fill="#FF7B52"/>
</svg>
